<svg xmlns="http://www.w3.org/2000/svg" viewBox="0 0 760 600" font-family="Inter, system-ui, sans-serif">
  <!-- Outline map of Oregon — white lines on transparent background -->
  <path d="M104 156
           C150 126 240 120 320 116
           C440 110 560 108 648 116
           L690 150
           C702 240 696 320 702 372
           L708 486
           L380 502
           L150 508
           C150 472 130 452 150 420
           C132 392 150 360 130 330
           C112 300 140 270 120 240
           C106 214 124 184 104 156 Z"
        fill="rgba(240,236,228,0.02)" stroke="#f0ece4" stroke-width="2.5" stroke-linejoin="round" stroke-linecap="round"/>

  <!-- faint state wordmark -->
  <text x="446" y="356" text-anchor="middle" fill="#f0ece4" opacity="0.16" font-size="46" font-weight="800" font-family="'Playfair Display', Georgia, serif" letter-spacing="6">OREGON</text>

  <!-- Portland marker -->
  <g transform="translate(252 172)">
    <circle r="9" fill="#d4930a" opacity="0.18"/>
    <circle r="4" fill="#d4930a"/>
  </g>
  <text x="266" y="176" fill="#f0ece4" font-size="14" font-weight="600">Portland</text>
</svg>
